<svg width="20" height="16" viewBox="0 0 20 16" fill="none" xmlns="http://www.w3.org/2000/svg">
<path d="M19.5307 4.66667H17.1921L16.5421 2.93333C15.8741 1.15125 14.28 0 12.4803 0H7.5194C5.72018 0 4.12564 1.15125 3.45728 2.93333L2.80728 4.66667H0.468999C0.163921 4.66667 -0.0599078 4.9725 0.0143111 5.28792L0.248686 6.28792C0.30064 6.51042 0.48814 6.66667 0.703375 6.66667H1.48736C0.96275 7.15542 0.624859 7.86583 0.624859 8.66667V10.6667C0.624859 11.3383 0.865484 11.9446 1.24986 12.4137V14.6667C1.24986 15.4029 1.80963 16 2.49986 16H3.74986C4.4401 16 4.99986 15.4029 4.99986 14.6667V13.3333H14.9999V14.6667C14.9999 15.4029 15.5596 16 16.2499 16H17.4999C18.1901 16 18.7499 15.4029 18.7499 14.6667V12.4137C19.1343 11.945 19.3749 11.3387 19.3749 10.6667V8.66667C19.3749 7.86583 19.037 7.15542 18.5128 6.66667H19.2968C19.512 6.66667 19.6995 6.51042 19.7514 6.28792L19.9858 5.28792C20.0597 4.9725 19.8358 4.66667 19.5307 4.66667ZM5.77838 3.92375C6.06315 3.16458 6.7526 2.66667 7.5194 2.66667H12.4803C13.2471 2.66667 13.9366 3.16458 14.2214 3.92375L14.9999 6H4.99986L5.77838 3.92375ZM3.74986 10.6583C2.99986 10.6583 2.49986 10.1267 2.49986 9.32917C2.49986 8.53167 2.99986 8 3.74986 8C4.49986 8 5.62487 9.19625 5.62487 9.99375C5.62487 10.7913 4.49986 10.6583 3.74986 10.6583ZM16.2499 10.6583C15.4999 10.6583 14.3749 10.7913 14.3749 9.99375C14.3749 9.19625 15.4999 8 16.2499 8C16.9999 8 17.4999 8.53167 17.4999 9.32917C17.4999 10.1267 16.9999 10.6583 16.2499 10.6583Z" fill="#555555"/>
</svg>
