<svg width="20" height="20" viewBox="0 0 20 20" fill="none" xmlns="http://www.w3.org/2000/svg">
<path fill-rule="evenodd" clip-rule="evenodd" d="M1.68994 9.37533C1.84759 7.27928 2.79152 5.32023 4.33258 3.89075C5.87363 2.46126 7.89797 1.66696 9.99994 1.66699C9.30828 1.66699 8.69161 1.97033 8.18327 2.43449C7.67911 2.89616 7.25327 3.54116 6.90828 4.30283C6.56161 5.06949 6.29161 5.96616 6.10911 6.93866C5.96034 7.74317 5.87176 8.55765 5.84411 9.37533H1.68994ZM1.68994 10.6253H5.84411C5.87411 11.4603 5.96327 12.282 6.10911 13.062C6.29244 14.0345 6.56161 14.9312 6.90828 15.6978C7.25327 16.4595 7.67911 17.1045 8.18327 17.5662C8.69161 18.0303 9.30828 18.3337 9.99994 18.3337C5.60827 18.3337 2.00911 14.9362 1.68994 10.6253Z" fill="#555555"/>
<path d="M9.99981 2.8291C9.77064 2.8291 9.47481 2.9266 9.13064 3.2416C8.78398 3.5591 8.43648 4.0566 8.12981 4.7341C7.82481 5.40744 7.57731 6.21993 7.40731 7.12827C7.27398 7.84327 7.19064 8.6016 7.16064 9.37493H12.839C12.8118 8.62102 12.7294 7.87011 12.5923 7.12827C12.4223 6.21993 12.1756 5.40744 11.8698 4.7341C11.5631 4.0566 11.2165 3.5591 10.8698 3.24243C10.5248 2.9266 10.229 2.8291 9.99981 2.8291ZM7.40731 12.8716C7.57731 13.7799 7.82481 14.5924 8.12981 15.2658C8.43648 15.9433 8.78398 16.4408 9.12981 16.7574C9.47481 17.0733 9.77148 17.1708 9.99981 17.1708C10.229 17.1708 10.5248 17.0733 10.869 16.7583C11.2165 16.4408 11.5631 15.9433 11.8698 15.2658C12.1748 14.5924 12.4223 13.7799 12.5923 12.8716C12.7265 12.1566 12.8098 11.3983 12.839 10.6249H7.16064C7.18981 11.3983 7.27314 12.1566 7.40731 12.8716Z" fill="#555555"/>
<path d="M10 1.66699C10.6925 1.66699 11.3083 1.97033 11.8167 2.43449C12.3208 2.89616 12.7475 3.54116 13.0917 4.30283C13.4392 5.06949 13.7083 5.96616 13.8908 6.93866C14.0367 7.71866 14.1258 8.54033 14.1558 9.37533H18.31C18.1525 7.2792 17.2087 5.32004 15.6676 3.89052C14.1265 2.461 12.102 1.66676 10 1.66699ZM13.8908 13.062C13.7083 14.0345 13.4392 14.9312 13.0917 15.6978C12.7475 16.4595 12.3208 17.1045 11.8167 17.5662C11.3083 18.0303 10.6925 18.3337 10 18.3337C14.3917 18.3337 17.9908 14.9362 18.31 10.6253H14.1558C14.1282 11.443 14.0396 12.2575 13.8908 13.062Z" fill="#555555"/>
</svg>
