<svg width="92" height="62" viewBox="0 0 92 62" fill="none" xmlns="http://www.w3.org/2000/svg">
<path d="M62.0067 0C62.0067 0 70.1342 19.8835 35.301 33.2392C16.3734 40.4942 1.83589 59.0897 19.1937 87.815C20.6312 74.9753 26.7951 46.6653 53.2997 40.2052C53.2997 40.2052 28.6308 49.4295 26.4516 91.1844C39.1275 92.9641 68.8562 94.16 77.6826 68.3613C89.3378 34.2756 62.0067 0 62.0067 0Z" fill="#7ED790"/>
<path d="M26.4631 91.0107C53.373 80.2711 72.9532 55.1122 75.6556 25.0786C70.1543 10.2392 62.0067 0 62.0067 0C62.0067 0 70.1342 19.8835 35.301 33.2392C16.3734 40.4942 1.83589 59.0897 19.1937 87.815C20.6312 74.9753 26.7951 46.6653 53.2997 40.2052C53.2982 40.2053 28.7027 49.4067 26.4631 91.0107Z" fill="#7ED790"/>
<path d="M16.5084 33.9025C17.8977 33.9025 19.024 32.7762 19.024 31.3868C19.024 29.9974 17.8977 28.8711 16.5084 28.8711C15.119 28.8711 13.9927 29.9974 13.9927 31.3868C13.9927 32.7762 15.119 33.9025 16.5084 33.9025Z" fill="#7ED790"/>
<path d="M24.4145 30.6679C25.4069 30.6679 26.2114 29.8634 26.2114 28.8711C26.2114 27.8787 25.4069 27.0742 24.4145 27.0742C23.4221 27.0742 22.6177 27.8787 22.6177 28.8711C22.6177 29.8634 23.4221 30.6679 24.4145 30.6679Z" fill="#7ED790"/>
<path d="M22.7973 16.2928C25.2782 16.2928 27.2894 14.2816 27.2894 11.8007C27.2894 9.31978 25.2782 7.30859 22.7973 7.30859C20.3164 7.30859 18.3052 9.31978 18.3052 11.8007C18.3052 14.2816 20.3164 16.2928 22.7973 16.2928Z" fill="#7ED790"/>
<path d="M36.6333 23.4805C37.4272 23.4805 38.0708 22.8369 38.0708 22.043C38.0708 21.2491 37.4272 20.6055 36.6333 20.6055C35.8394 20.6055 35.1958 21.2491 35.1958 22.043C35.1958 22.8369 35.8394 23.4805 36.6333 23.4805Z" fill="#7ED790"/>
<path d="M48.6733 18.0898C50.9558 18.0898 52.8061 16.2395 52.8061 13.957C52.8061 11.6745 50.9558 9.82422 48.6733 9.82422C46.3908 9.82422 44.5405 11.6745 44.5405 13.957C44.5405 16.2395 46.3908 18.0898 48.6733 18.0898Z" fill="#7ED790"/>
</svg>
