<svg width="16" height="16" viewBox="0 0 16 16" fill="none" xmlns="http://www.w3.org/2000/svg">
<path d="M15.7092 0.290822C16.0441 0.686596 16.0897 1.24981 15.8462 1.98047C15.6027 2.71113 15.1917 3.36568 14.6133 3.94412L12.7753 5.78218L14.6019 13.7281C14.6399 13.8727 14.5943 13.9983 14.4649 14.1049L13.0037 15.2008C12.9504 15.2465 12.8781 15.2693 12.7867 15.2693C12.7563 15.2693 12.7297 15.2655 12.7068 15.2579C12.5927 15.2351 12.5128 15.1742 12.4671 15.0753L9.28209 9.27565L6.3254 12.2325L6.93044 14.4473C6.96849 14.5767 6.93805 14.6947 6.83911 14.8013L5.74319 15.8973C5.6747 15.9658 5.58718 16 5.48063 16H5.4578C5.34364 15.9848 5.25231 15.9353 5.18382 15.8516L3.02623 12.9746L0.149443 10.8169C0.0657274 10.7636 0.0162589 10.6761 0.0010378 10.5543C-0.00657274 10.4554 0.0276747 10.3602 0.10378 10.2689L1.1997 9.16148C1.26819 9.09299 1.35571 9.05874 1.46226 9.05874C1.50793 9.05874 1.53837 9.06254 1.55359 9.07015L3.76826 9.67523L6.72495 6.71834L0.925719 3.53312C0.819171 3.47223 0.754482 3.3809 0.73165 3.25913C0.716429 3.13735 0.750676 3.0346 0.834392 2.95088L2.29562 1.48956C2.40216 1.39062 2.51632 1.36017 2.63809 1.39823L10.2296 3.21346L12.0561 1.38681C12.6345 0.808372 13.289 0.397376 14.0197 0.153823C14.7503 -0.0897301 15.3134 -0.0440639 15.7092 0.290822Z" fill="#555555"/>
</svg>
