<svg width="22" height="16" viewBox="0 0 22 16" fill="none" xmlns="http://www.w3.org/2000/svg">
<g clip-path="url(#clip0_1192_4091)">
<path d="M5.86667 7.49023C7.337 7.49023 8.53333 6.36867 8.53333 4.99023C8.53333 3.6118 7.337 2.49023 5.86667 2.49023C4.39633 2.49023 3.2 3.6118 3.2 4.99023C3.2 6.36867 4.39633 7.49023 5.86667 7.49023ZM17.6 3.49023H10.1333C9.83867 3.49023 9.6 3.71398 9.6 3.99023V8.49023H2.13333V1.99023C2.13333 1.71398 1.89467 1.49023 1.6 1.49023H0.533333C0.238667 1.49023 0 1.71398 0 1.99023V12.9902C0 13.2665 0.238667 13.4902 0.533333 13.4902H1.6C1.89467 13.4902 2.13333 13.2665 2.13333 12.9902V11.4902H19.2V12.9902C19.2 13.2665 19.4387 13.4902 19.7333 13.4902H20.8C21.0947 13.4902 21.3333 13.2665 21.3333 12.9902V6.99023C21.3333 5.05711 19.662 3.49023 17.6 3.49023Z" fill="#555555"/>
</g>
<defs>
<clipPath id="clip0_1192_4091">
<rect width="21.3333" height="16" fill="white"/>
</clipPath>
</defs>
</svg>
